<?xml version="1.0" standalone="no"?>
<!DOCTYPE svg PUBLIC "-//W3C//DTD SVG 20010904//EN"
 "http://www.w3.org/TR/2001/REC-SVG-20010904/DTD/svg10.dtd">
<svg version="1.0" xmlns="http://www.w3.org/2000/svg"
 width="524.000000pt" height="524.000000pt" viewBox="0 0 524.000000 524.000000"
 preserveAspectRatio="xMidYMid meet">
<metadata>
Created by potrace 1.14, written by Peter Selinger 2001-2017
</metadata>
<g transform="translate(0.000000,524.000000) scale(0.100000,-0.100000)"
fill="#000000" stroke="none">
<path d="M3332 4949 c-174 -55 -328 -190 -490 -430 -66 -97 -92 -156 -83 -183
10 -25 48 -47 76 -41 11 2 26 4 32 4 7 1 33 28 57 62 60 82 117 142 181 189
30 22 56 40 59 40 3 0 29 11 59 24 29 14 67 28 83 32 37 8 394 18 394 11 0
-10 -70 -236 -101 -330 -85 -251 -213 -567 -339 -837 -126 -270 -141 -312
-134 -360 12 -75 70 -120 154 -120 96 0 163 72 218 236 16 46 116 429 158 604
2 8 48 191 103 405 56 215 101 393 101 398 0 4 106 7 235 7 181 0 235 -3 235
-12 0 -7 -7 -42 -16 -78 -28 -120 -94 -440 -100 -487 -3 -26 -7 -50 -9 -53 -2
-4 -7 -31 -10 -61 -3 -30 -8 -70 -11 -89 -18 -106 -11 -436 10 -544 3 -11 8
-37 11 -56 20 -103 76 -218 121 -249 72 -50 201 -7 251 84 34 64 35 104 2 182
-75 177 -114 317 -136 498 -16 121 -7 586 12 655 2 8 6 33 10 55 9 61 15 97
21 128 l6 27 291 0 c161 0 307 4 326 10 90 25 148 150 109 234 -6 14 -30 35
-53 46 -41 20 -58 20 -906 19 -833 0 -866 -1 -927 -20z"/>
<path d="M1569 3256 c-2 -2 -29 -6 -59 -9 -85 -9 -118 -16 -210 -43 -345 -101
-645 -300 -882 -584 -21 -25 -42 -50 -48 -57 -20 -25 -118 -180 -146 -233
-104 -194 -177 -428 -201 -646 -10 -89 -10 -382 0 -459 52 -402 257 -725 552
-870 141 -69 230 -88 415 -89 167 -1 211 3 356 35 259 56 518 184 750 372 156
127 324 326 324 386 0 32 -43 81 -72 81 -21 0 -78 -53 -138 -130 -45 -58 -181
-195 -246 -248 -245 -199 -604 -334 -922 -347 -201 -8 -335 51 -443 195 -137
183 -178 528 -113 938 13 84 47 252 59 293 5 13 34 15 218 16 334 2 536 16
712 49 44 9 91 17 105 20 188 35 399 136 521 250 219 203 297 520 183 745 -78
155 -246 282 -416 314 -13 3 -34 7 -48 11 -28 6 -246 15 -251 10z m262 -176
c73 -22 156 -73 200 -123 125 -140 125 -396 0 -577 -79 -115 -242 -221 -424
-276 -100 -31 -115 -34 -259 -60 -24 -4 -97 -14 -143 -20 -22 -3 -170 -8 -329
-11 l-288 -6 7 34 c11 53 85 256 123 339 102 219 246 409 401 529 49 38 190
121 216 128 6 1 44 14 85 28 135 46 289 52 411 15z"/>
</g>
</svg>
